<?xml version="1.0" standalone="no"?>
<!DOCTYPE svg PUBLIC "-//W3C//DTD SVG 20010904//EN"
 "http://www.w3.org/TR/2001/REC-SVG-20010904/DTD/svg10.dtd">
<svg version="1.0" xmlns="http://www.w3.org/2000/svg"
 width="265.000000pt" height="262.000000pt" viewBox="0 0 265.000000 262.000000"
 preserveAspectRatio="xMidYMid meet">
<metadata>
Created by potrace 1.13, written by Peter Selinger 2001-2015
</metadata>
<g transform="translate(0.000000,262.000000) scale(0.100000,-0.100000)"
fill="#000000" stroke="none">
<path d="M1180 2530 c-204 -21 -409 -98 -575 -215 -257 -182 -446 -482 -495
-788 -19 -115 -8 -389 19 -492 74 -280 230 -512 457 -683 84 -63 262 -152 364
-182 572 -169 1183 93 1439 615 239 487 141 1046 -247 1417 -168 160 -365 263
-600 313 -89 18 -263 26 -362 15z m146 -9 c5 -5 90 -50 190 -100 269 -134 347
-200 347 -292 0 -34 2 -39 16 -32 9 4 39 8 66 8 79 0 143 -45 337 -238 l169
-169 -31 -196 c-36 -230 -51 -298 -86 -369 -26 -54 -73 -93 -114 -93 l-22 0
25 -30 c62 -73 44 -152 -100 -441 l-108 -216 -85 -12 c-47 -6 -134 -20 -195
-31 -148 -26 -296 -26 -353 0 -23 11 -50 32 -59 48 l-17 29 -21 -31 c-39 -59
-73 -68 -225 -62 -77 3 -205 18 -298 34 l-164 28 -69 134 c-142 277 -169 345
-169 431 0 47 5 63 25 87 l25 30 -33 6 c-89 17 -136 127 -177 416 -12 80 -26
165 -31 190 l-10 45 183 180 c198 194 248 230 328 229 25 0 53 -3 63 -8 15 -7
17 -3 17 30 0 93 86 166 345 294 77 37 154 77 170 88 34 23 47 26 61 13z"/>
<path d="M1040 1846 c0 -69 2 -76 19 -76 11 0 33 -11 48 -24 l28 -24 3 -228
c3 -244 1 -274 -25 -274 -33 0 -98 48 -122 90 -19 34 -23 52 -19 101 5 67 25
101 81 138 l37 24 0 74 c0 40 -2 73 -5 73 -29 0 -121 -49 -159 -86 -71 -67
-101 -139 -101 -239 0 -68 5 -88 29 -138 49 -96 123 -153 236 -181 28 -7 45
-17 45 -26 0 -11 17 -16 73 -20 l72 -5 0 345 c0 214 -4 360 -11 384 -12 45
-76 118 -122 139 -18 9 -49 18 -69 22 l-38 7 0 -76z"/>
<path d="M1495 1904 c-55 -19 -111 -67 -138 -117 -21 -41 -22 -52 -25 -399
l-3 -358 65 0 c36 0 69 -1 74 -2 4 -2 8 7 10 19 3 17 14 24 53 32 69 15 117
42 165 93 71 73 89 119 89 223 0 78 -4 97 -28 147 -15 31 -46 73 -69 93 -38
35 -144 92 -153 83 -3 -2 -8 -36 -11 -76 -7 -69 -6 -72 17 -81 42 -16 86 -69
98 -116 21 -83 -16 -168 -89 -205 -73 -37 -70 -48 -70 226 0 139 4 253 10 263
5 10 28 26 50 35 l41 16 -3 68 c-3 77 -12 82 -83 56z"/>
<path d="M896 919 l1 -41 183 2 c101 0 187 3 192 6 12 8 10 48 -4 62 -8 8 -65
12 -193 12 l-180 0 1 -41z"/>
<path d="M1340 940 c-6 -12 -8 -30 -5 -40 6 -19 16 -20 194 -20 l188 0 -5 25
c-2 14 1 32 8 40 11 13 -10 15 -178 15 -182 0 -192 -1 -202 -20z"/>
<path d="M830 770 l0 -40 475 0 475 0 0 40 0 40 -475 0 -475 0 0 -40z"/>
</g>
</svg>
